<svg xmlns="http://www.w3.org/2000/svg" width="61.844" height="14.029" viewBox="0 0 61.844 14.029" fill="none">
  <path d="M 4.237 9.047 C 4.696 9.047 4.982 8.99 5.325 8.876 L 5.325 10.937 C 4.982 11.109 4.409 11.223 3.608 11.223 C 2.233 11.223 1.145 10.765 1.145 8.303 L 1.145 5.096 L 0 5.096 L 0 3.092 L 1.145 3.092 L 1.145 1.203 L 3.608 1.203 L 3.608 3.092 L 5.325 3.092 L 5.325 5.096 L 3.608 5.096 L 3.608 8.303 C 3.608 8.647 3.665 9.047 4.237 9.047 Z M 11.796 2.92 C 12.025 2.92 12.254 2.92 12.426 2.978 L 12.426 5.325 C 12.254 5.268 12.025 5.268 11.853 5.268 C 10.365 5.268 9.162 6.356 9.047 7.845 L 9.047 11.109 L 6.585 11.109 L 6.585 3.035 L 9.047 3.035 L 9.047 4.982 C 9.448 3.779 10.365 2.92 11.796 2.92 Z M 19.355 3.035 L 21.817 3.035 L 21.817 11.109 L 19.355 11.109 L 19.355 10.307 C 19.24 10.594 18.496 11.281 17.293 11.281 C 15.461 11.281 13.342 9.964 13.342 7.101 C 13.342 4.295 15.461 2.92 17.293 2.92 C 18.553 2.92 19.24 3.608 19.355 3.779 L 19.355 3.035 Z M 17.637 9.105 C 18.668 9.105 19.469 8.418 19.469 7.043 C 19.469 5.726 18.668 5.039 17.637 5.039 C 16.606 5.039 15.69 5.726 15.69 7.043 C 15.69 8.36 16.549 9.105 17.637 9.105 Z M 29.204 0.115 L 31.666 0.115 L 31.666 4.066 L 31.666 11.109 L 29.204 11.109 L 29.204 10.307 C 29.089 10.594 28.345 11.281 27.142 11.281 C 25.31 11.281 23.191 9.964 23.191 7.101 C 23.191 4.295 25.31 2.92 27.142 2.92 C 28.402 2.92 29.089 3.608 29.204 3.779 L 29.204 0.115 Z M 27.486 9.105 C 28.517 9.105 29.318 8.418 29.318 7.043 C 29.318 5.726 28.517 5.039 27.486 5.039 C 26.455 5.039 25.539 5.726 25.539 7.043 C 25.482 8.36 26.398 9.105 27.486 9.105 Z M 37.221 2.92 C 39.053 2.92 41.63 4.295 41.115 7.959 L 35.503 7.959 C 35.789 8.818 36.534 9.219 37.507 9.219 C 38.48 9.219 38.824 8.99 39.339 8.761 L 40.714 10.078 C 40.027 10.765 39.053 11.281 37.392 11.281 C 35.388 11.281 32.983 9.906 32.983 7.101 C 32.983 4.295 35.388 2.92 37.221 2.92 Z M 37.221 4.982 C 36.534 4.982 35.789 5.383 35.503 6.184 L 38.939 6.184 C 38.652 5.383 37.908 4.982 37.221 4.982 Z M 44.951 0.115 L 44.951 2.176 L 42.489 2.176 L 42.489 0.115 L 44.951 0.115 Z M 44.951 3.035 L 44.951 11.109 L 42.489 11.109 L 42.489 3.035 L 44.951 3.035 Z M 50.277 2.004 C 49.589 2.004 49.589 2.634 49.589 2.806 L 49.589 3.035 L 51.25 3.035 L 51.25 5.039 L 49.589 5.039 L 49.589 11.109 L 47.127 11.109 L 47.127 5.039 L 46.039 5.039 L 46.039 3.035 L 47.127 3.035 L 47.127 2.806 C 47.127 0.286 49.017 0 49.99 0 C 50.792 0 51.536 0.172 52.109 0.515 L 51.307 2.233 C 50.849 2.061 50.677 2.004 50.277 2.004 Z M 59.381 2.978 L 61.844 2.978 L 56.862 14.029 L 54.399 14.029 L 55.888 10.823 L 52.395 2.978 L 54.858 2.978 L 57.148 8.189 L 59.381 2.978 Z" fill="currentColor" fill-rule="nonzero"></path>
</svg>
